<?xml version="1.0" encoding="UTF-8"?><svg id="Layer_2" xmlns="http://www.w3.org/2000/svg" xmlns:xlink="http://www.w3.org/1999/xlink" viewBox="0 0 165.97 48.29"><defs><style>.cls-1{fill:#fff;fill-rule:evenodd;}.cls-2{mask:url(#mask);}</style><mask id="mask" x="72.01" y="0" width="93.96" height="48.29" maskUnits="userSpaceOnUse"/></defs><g id="Layer_1-2"><g><path class="cls-1" d="M0,14.1v.12l27.95,13.13,28.05-13.17v-.03L27.95,.97,0,14.1Zm10.08,.06L27.95,5.77l17.88,8.4-17.88,8.4L10.08,14.16h0Zm17.87,18.29L0,19.52v4.78l27.95,12.96,28.05-13.01v-4.78l-28.05,12.98Zm0,9.7L0,29.22v4.78l27.95,12.97,28.05-13.01v-4.78l-28.05,12.98Z"/><g class="cls-2"><path class="cls-1" d="M159.56,24.12c.02-2.07-.76-4.06-2.16-5.57-.66-.71-1.46-1.28-2.34-1.67-.9-.4-1.87-.61-2.85-.6-1.01,0-1.96,.2-2.85,.6-.88,.4-1.68,.96-2.34,1.67-1.4,1.51-2.18,3.51-2.16,5.57-.02,2.07,.76,4.06,2.16,5.57,.66,.71,1.46,1.28,2.34,1.67,.9,.4,1.87,.61,2.85,.6,1.01,0,1.96-.2,2.85-.6,.88-.4,1.68-.96,2.34-1.67,1.4-1.51,2.18-3.51,2.16-5.57h0Zm6.42,0c0,1.93-.36,3.72-1.07,5.37-.68,1.61-1.68,3.06-2.94,4.28-1.25,1.21-2.71,2.16-4.39,2.85-1.68,.7-3.47,1.05-5.37,1.05s-3.68-.35-5.35-1.05c-1.62-.67-3.11-1.65-4.37-2.88-1.25-1.23-2.25-2.69-2.94-4.3-.71-1.65-1.07-3.43-1.07-5.33s.36-3.63,1.09-5.28c.7-1.62,1.71-3.08,2.96-4.32,1.26-1.24,2.74-2.22,4.37-2.9,1.68-.7,3.48-1.06,5.3-1.05,1.9,0,3.69,.35,5.37,1.05,1.68,.7,3.14,1.65,4.39,2.85s2.23,2.64,2.94,4.3c.71,1.66,1.07,3.45,1.07,5.35Zm-29.72,12.75c-.55,.25-1.12,.45-1.72,.58-.64,.15-1.3,.22-1.98,.22-.93,0-1.85-.12-2.74-.38-.85-.24-1.63-.65-2.3-1.23-.65-.56-1.17-1.3-1.56-2.21-.38-.91-.58-2-.58-3.28V0h6.55V29.47c0,1.07,.22,1.81,.65,2.21,.43,.4,.94,.6,1.54,.6,.74,0,1.46-.22,2.14-.67,0,0,0,5.26,0,5.26Zm-13.77-25.68l-11.58,30.63c-.86,2.29-1.99,3.94-3.39,4.95-1.4,1.01-3.06,1.51-4.99,1.51-.3,0-.62-.02-.98-.07-.35-.04-.69-.11-1.02-.2l-2.14-5.97c.5,.24,1.02,.42,1.56,.56,.53,.13,1.04,.2,1.51,.2,1.01,0,1.93-.23,2.76-.69,.83-.46,1.47-1.31,1.92-2.56l.89-2.59-9.94-25.77h6.99l5.92,16.59,5.57-16.59h6.91Zm-26.95-3.88h-16.75V15.61h16.53v5.62h-16.53v15.78h-6.77V1.38h23.52V7.31h0Z"/></g></g></g></svg>